<?xml version="1.0" encoding="UTF-8"?>
<!DOCTYPE svg PUBLIC "-//W3C//DTD SVG 1.1//EN" "http://www.w3.org/Graphics/SVG/1.1/DTD/svg11.dtd">
<!-- Creator: CorelDRAW 2017 -->
<svg xmlns="http://www.w3.org/2000/svg" xml:space="preserve" width="146px" height="15px" version="1.1" style="shape-rendering:geometricPrecision; text-rendering:geometricPrecision; image-rendering:optimizeQuality; fill-rule:evenodd; clip-rule:evenodd"
viewBox="0 0 72270 7400"
 xmlns:xlink="http://www.w3.org/1999/xlink">
 <defs>
  <style type="text/css">
   <![CDATA[
    .fil1 {fill:#FFC524;fill-rule:nonzero}
    .fil0 {fill:white;fill-rule:nonzero}
   ]]>
  </style>
 </defs>
 <g id="Camada_x0020_1">
  <metadata id="CorelCorpID_0Corel-Layer"/>
  <g id="_2747835131040">
   <path class="fil0" d="M2530 7400c2310,0 3800,-1580 3800,-3690 0,-2100 -1490,-3710 -3800,-3710l-2530 0 0 7400 2530 0zm0 -820l-1610 0 0 -5760 1610 0c1830,0 2840,1290 2840,2890 0,1580 -1040,2870 -2840,2870zm10090 820l0 -820 -3930 0 0 -2550 3850 0 0 -820 -3850 0 0 -2390 3930 0 0 -820 -4850 0 0 7400 4850 0zm28400 0l0 -820 -3930 0 0 -2550 3850 0 0 -820 -3850 0 0 -2390 3930 0 0 -820 -4850 0 0 7400 4850 0zm8710 0l0 -7400 -1320 0 -2300 5700 -2310 -5700 -1320 0 0 7400 920 0 0 -6220 2520 6220 380 0 2510 -6220 0 6220 920 0z"/>
   <path class="fil1" d="M17970 7400c1410,0 2150,-890 2150,-2000 0,-930 -630,-1690 -1420,-1820 700,-140 1280,-760 1280,-1690 0,-990 -730,-1890 -2140,-1890l-3890 0 0 7400 4020 0zm-470 -4440l-1970 0 0 -1610 1970 0c530,0 870,350 870,810 0,470 -340,800 -870,800zm60 3080l-2030 0 0 -1720 2030 0c620,0 950,400 950,860 0,540 -350,860 -950,860zm10650 1360l-2850 -7400 -1980 0 -2860 7400 1800 0 460 -1250 3180 0 450 1250 1800 0zm-2690 -2640l-2300 0 1150 -3180 1150 3180zm9370 2640l-1660 -2820c800,-190 1620,-880 1620,-2190 0,-1380 -950,-2390 -2490,-2390l-3460 0 0 7400 1570 0 0 -2630 1160 0 1450 2630 1810 0zm-2760 -4020l-1660 0 0 -1990 1660 0c630,0 1110,370 1110,1000 0,620 -480,990 -1110,990zm23210 4020c1410,0 2160,-890 2160,-2000 0,-930 -640,-1690 -1420,-1820 700,-140 1270,-760 1270,-1690 0,-990 -720,-1890 -2130,-1890l-3890 0 0 7400 4010 0zm-460 -4440l-1980 0 0 -1610 1980 0c530,0 860,350 860,810 0,470 -330,800 -860,800zm50 3080l-2030 0 0 -1720 2030 0c620,0 960,400 960,860 0,540 -360,860 -960,860zm10660 1360l-2860 -7400 -1970 0 -2860 7400 1790 0 470 -1250 3170 0 460 1250 1800 0zm-2690 -2640l-2310 0 1160 -3180 1150 3180zm9370 2640l-1670 -2820c800,-190 1620,-880 1620,-2190 0,-1380 -940,-2390 -2480,-2390l-3470 0 0 7400 1580 0 0 -2630 1150 0 1460 2630 1810 0zm-2770 -4020l-1650 0 0 -1990 1650 0c640,0 1110,370 1110,1000 0,620 -470,990 -1110,990z"/>
  </g>
 </g>
</svg>
